HIERARCHY
ROOT hip
{
  OFFSET 0 90.174 2.4664
  CHANNELS 6 Xposition Yposition Zposition Zrotation Xrotation Yrotation
  JOINT abdomen
  {
    OFFSET 0 -1.186 -1.5018
    CHANNELS 6 Xposition Yposition Zposition Zrotation Xrotation Yrotation
    JOINT abdomen2
    {
      OFFSET 0 9.964 0.2134
      CHANNELS 6 Xposition Yposition Zposition Zrotation Xrotation Yrotation
      JOINT chest
      {
        OFFSET 0 13.134 -3.2573
        CHANNELS 6 Xposition Yposition Zposition Zrotation Xrotation Yrotation
        JOINT neck
        {
          OFFSET 0 20.686 -1.6905
          CHANNELS 6 Xposition Yposition Zposition Zrotation Xrotation Yrotation
          JOINT head
          {
            OFFSET 0 7.238 -0.1237
            CHANNELS 6 Xposition Yposition Zposition Zrotation Xrotation Yrotation
            End Site
            {
              OFFSET 0 0 0
            }
          }
        }
        JOINT lCollar
        {
          OFFSET 1.7069 20.075 5.0056
          CHANNELS 6 Xposition Yposition Zposition Zrotation Xrotation Yrotation
          JOINT lShldr
          {
            OFFSET 13.6458 -0.047 -4.849
            CHANNELS 6 Xposition Yposition Zposition Zrotation Xrotation Yrotation
            JOINT lForeArm
            {
              OFFSET 28.3255 -0.9759 2.2888
              CHANNELS 6 Xposition Yposition Zposition Zrotation Xrotation Yrotation
              JOINT lHand
              {
                OFFSET 22.1583 -0.53 10.8316
                CHANNELS 6 Xposition Yposition Zposition Zrotation Xrotation Yrotation
                JOINT lThumb1
                {
                  OFFSET 0.786 0.112 2.5817
                  CHANNELS 6 Xposition Yposition Zposition Zrotation Xrotation Yrotation
                  JOINT lThumb2
                  {
                    OFFSET 0.3601 -0.878 4.2331
                    CHANNELS 6 Xposition Yposition Zposition Zrotation Xrotation Yrotation
                    JOINT lThumb2_End
                    {
                      OFFSET 1.8127 -1.216 2.2227
                      CHANNELS 6 Xposition Yposition Zposition Zrotation Xrotation Yrotation
                      End Site
                      {
                        OFFSET 0.0181 -0.0122 0.0222
                      }
                    }
                  }
                }
                JOINT lCarpal1
                {
                  OFFSET 0.9571 1.114 1.7695
                  CHANNELS 6 Xposition Yposition Zposition Zrotation Xrotation Yrotation
                  JOINT lIndex1
                  {
                    OFFSET 4.1246 0.487 4.1451
                    CHANNELS 6 Xposition Yposition Zposition Zrotation Xrotation Yrotation
                    JOINT lIndex2
                    {
                      OFFSET 3.4052 -1.454 2.7682
                      CHANNELS 6 Xposition Yposition Zposition Zrotation Xrotation Yrotation
                      JOINT lIndex2_End
                      {
                        OFFSET 1.4531 -1.795 1.2713
                        CHANNELS 6 Xposition Yposition Zposition Zrotation Xrotation Yrotation
                        End Site
                        {
                          OFFSET 0.0145 -0.0179 0.0127
                        }
                      }
                    }
                  }
                  JOINT lMid1
                  {
                    OFFSET 5.6954 0.21 2.1184
                    CHANNELS 6 Xposition Yposition Zposition Zrotation Xrotation Yrotation
                    JOINT lMid2
                    {
                      OFFSET 3.9766 -1.54 2.3863
                      CHANNELS 6 Xposition Yposition Zposition Zrotation Xrotation Yrotation
                      JOINT lMid2_End
                      {
                        OFFSET 1.4042 -1.926 1.125
                        CHANNELS 6 Xposition Yposition Zposition Zrotation Xrotation Yrotation
                        End Site
                        {
                          OFFSET 0.014 -0.0193 0.0113
                        }
                      }
                    }
                  }
                }
                JOINT lCarpal2
                {
                  OFFSET 2.0956 0.66 -0.3894
                  CHANNELS 6 Xposition Yposition Zposition Zrotation Xrotation Yrotation
                  JOINT lRing1
                  {
                    OFFSET 5.0395 -0.09 2.4971
                    CHANNELS 6 Xposition Yposition Zposition Zrotation Xrotation Yrotation
                    JOINT lRing2
                    {
                      OFFSET 3.7921 -1.552 1.4806
                      CHANNELS 6 Xposition Yposition Zposition Zrotation Xrotation Yrotation
                      JOINT lRing2_End
                      {
                        OFFSET 1.4655 -1.808 0.9609
                        CHANNELS 6 Xposition Yposition Zposition Zrotation Xrotation Yrotation
                        End Site
                        {
                          OFFSET 0.0147 -0.0181 0.0096
                        }
                      }
                    }
                  }
                  JOINT lPinky1
                  {
                    OFFSET 4.9141 -1.269 0.3591
                    CHANNELS 6 Xposition Yposition Zposition Zrotation Xrotation Yrotation
                    JOINT lPinky2
                    {
                      OFFSET 3.1477 -1.685 0.8462
                      CHANNELS 6 Xposition Yposition Zposition Zrotation Xrotation Yrotation
                      JOINT lPinky2_End
                      {
                        OFFSET 0.8055 -1.585 0.7955
                        CHANNELS 6 Xposition Yposition Zposition Zrotation Xrotation Yrotation
                        End Site
                        {
                          OFFSET 0.0081 -0.0158 0.008
                        }
                      }
                    }
                  }
                }
              }
            }
          }
        }
        JOINT rCollar
        {
          OFFSET -1.7069 20.075 5.0056
          CHANNELS 6 Xposition Yposition Zposition Zrotation Xrotation Yrotation
          JOINT rShldr
          {
            OFFSET -13.6458 -0.047 -4.849
            CHANNELS 6 Xposition Yposition Zposition Zrotation Xrotation Yrotation
            JOINT rForeArm
            {
              OFFSET -28.3255 -0.9759 2.2888
              CHANNELS 6 Xposition Yposition Zposition Zrotation Xrotation Yrotation
              JOINT rHand
              {
                OFFSET -22.1583 -0.53 10.8316
                CHANNELS 6 Xposition Yposition Zposition Zrotation Xrotation Yrotation
                JOINT rThumb1
                {
                  OFFSET -0.786 0.112 2.5817
                  CHANNELS 6 Xposition Yposition Zposition Zrotation Xrotation Yrotation
                  JOINT rThumb2
                  {
                    OFFSET -0.3601 -0.878 4.2331
                    CHANNELS 6 Xposition Yposition Zposition Zrotation Xrotation Yrotation
                    JOINT rThumb2_End
                    {
                      OFFSET -1.8127 -1.216 2.2227
                      CHANNELS 6 Xposition Yposition Zposition Zrotation Xrotation Yrotation
                      End Site
                      {
                        OFFSET -0.0181 -0.0122 0.0222
                      }
                    }
                  }
                }
                JOINT rCarpal1
                {
                  OFFSET -0.9571 1.114 1.7695
                  CHANNELS 6 Xposition Yposition Zposition Zrotation Xrotation Yrotation
                  JOINT rIndex1
                  {
                    OFFSET -4.1246 0.487 4.1451
                    CHANNELS 6 Xposition Yposition Zposition Zrotation Xrotation Yrotation
                    JOINT rIndex2
                    {
                      OFFSET -3.4052 -1.454 2.7682
                      CHANNELS 6 Xposition Yposition Zposition Zrotation Xrotation Yrotation
                      JOINT rIndex2_End
                      {
                        OFFSET -1.4531 -1.795 1.2713
                        CHANNELS 6 Xposition Yposition Zposition Zrotation Xrotation Yrotation
                        End Site
                        {
                          OFFSET -0.0145 -0.018 0.0127
                        }
                      }
                    }
                  }
                  JOINT rMid1
                  {
                    OFFSET -5.6954 0.21 2.1184
                    CHANNELS 6 Xposition Yposition Zposition Zrotation Xrotation Yrotation
                    JOINT rMid2
                    {
                      OFFSET -3.9766 -1.54 2.3863
                      CHANNELS 6 Xposition Yposition Zposition Zrotation Xrotation Yrotation
                      JOINT rMid2_End
                      {
                        OFFSET -1.4042 -1.926 1.125
                        CHANNELS 6 Xposition Yposition Zposition Zrotation Xrotation Yrotation
                        End Site
                        {
                          OFFSET -0.014 -0.0193 0.0113
                        }
                      }
                    }
                  }
                }
                JOINT rCarpal2
                {
                  OFFSET -2.0956 0.66 -0.3894
                  CHANNELS 6 Xposition Yposition Zposition Zrotation Xrotation Yrotation
                  JOINT rRing1
                  {
                    OFFSET -5.0395 -0.09 2.4971
                    CHANNELS 6 Xposition Yposition Zposition Zrotation Xrotation Yrotation
                    JOINT rRing2
                    {
                      OFFSET -3.7921 -1.552 1.4806
                      CHANNELS 6 Xposition Yposition Zposition Zrotation Xrotation Yrotation
                      JOINT rRing2_End
                      {
                        OFFSET -1.4655 -1.808 0.9609
                        CHANNELS 6 Xposition Yposition Zposition Zrotation Xrotation Yrotation
                        End Site
                        {
                          OFFSET -0.0147 -0.0181 0.0096
                        }
                      }
                    }
                  }
                  JOINT rPinky1
                  {
                    OFFSET -4.9141 -1.269 0.3592
                    CHANNELS 6 Xposition Yposition Zposition Zrotation Xrotation Yrotation
                    JOINT rPinky2
                    {
                      OFFSET -3.1477 -1.685 0.8462
                      CHANNELS 6 Xposition Yposition Zposition Zrotation Xrotation Yrotation
                      JOINT rPinky2_End
                      {
                        OFFSET -0.8055 -1.585 0.7955
                        CHANNELS 6 Xposition Yposition Zposition Zrotation Xrotation Yrotation
                        End Site
                        {
                          OFFSET -0.0081 -0.0158 0.008
                        }
                      }
                    }
                  }
                }
              }
            }
          }
        }
      }
    }
  }
  JOINT lThigh
  {
    OFFSET 8.367 -8.2066 0.5982
    CHANNELS 6 Xposition Yposition Zposition Zrotation Xrotation Yrotation
    JOINT lShin
    {
      OFFSET 2.1923 -43.463 -0.4932
      CHANNELS 6 Xposition Yposition Zposition Zrotation Xrotation Yrotation
      JOINT lFoot
      {
        OFFSET 0.7333 -45.8593 -2.6451
        CHANNELS 6 Xposition Yposition Zposition Zrotation Xrotation Yrotation
        End Site
        {
          OFFSET 2.6618 -4.2699 12.3931
        }
      }
    }
  }
  JOINT rThigh
  {
    OFFSET -8.367 -8.2066 0.5982
    CHANNELS 6 Xposition Yposition Zposition Zrotation Xrotation Yrotation
    JOINT rShin
    {
      OFFSET -2.1923 -43.463 -0.4931
      CHANNELS 6 Xposition Yposition Zposition Zrotation Xrotation Yrotation
      JOINT rFoot
      {
        OFFSET -0.7333 -45.8593 -2.6451
        CHANNELS 6 Xposition Yposition Zposition Zrotation Xrotation Yrotation
        End Site
        {
          OFFSET -2.6618 -4.2699 12.3931
        }
      }
    }
  }
}
MOTION
Frames:	4
Frame Time:	0.0333333
0 90.174 2.4664 0 0 -0 0 -1.186 -1.5018 0 0 -0 0 9.964 0.2134 0 0 -0 0 13.134 -3.2573 0 0 -0 0 20.686 -1.6905 0 0 -0 0 7.238 -0.1237 0 0 -0 1.7069 20.075 5.0056 0 0 -0 13.6458 -0.047 -4.849 1.66051 0.0835086 5.75766 28.3255 -0.9759 2.2888 -0.0175111 0.895433 15.7816 22.1583 -0.53 10.8316 7.95139e-016 -1.98785e-016 -0 0.786 0.112 2.5817 5.46658e-016 -3.97569e-016 -0 0.3601 -0.878 4.2331 5.96354e-016 0 -0 1.8127 -1.216 2.2227 3.97569e-016 1.98785e-016 9.54166e-015 0.9571 1.114 1.7695 1.49089e-016 -3.97569e-016 -0 4.1246 0.487 4.1451 6.4605e-016 0 3.18055e-015 3.4052 -1.454 2.7682 5.96354e-016 0 3.18055e-015 1.4531 -1.795 1.2713 8.94531e-016 -1.98785e-016 6.36111e-015 5.6954 0.21 2.1184 6.4605e-016 0 3.18055e-015 3.9766 -1.54 2.3863 5.96354e-016 0 3.18055e-015 1.4042 -1.926 1.125 8.94531e-016 -1.98785e-016 6.36111e-015 2.0956 0.66 -0.3894 1.49089e-016 -3.97569e-016 -0 5.0395 -0.09 2.4971 6.4605e-016 0 3.18055e-015 3.7921 -1.552 1.4806 5.96354e-016 0 3.18055e-015 1.4655 -1.808 0.9609 8.94531e-016 -1.98785e-016 6.36111e-015 4.9141 -1.269 0.3591 6.4605e-016 0 3.18055e-015 3.1477 -1.685 0.8462 5.96354e-016 0 3.18055e-015 0.8055 -1.585 0.7955 8.94531e-016 -1.98785e-016 6.36111e-015 -1.7069 20.075 5.0056 0 0 -0 -13.6458 -0.047 -4.849 -1.4496 0.0636048 -5.0245 -28.3255 -0.9759 2.2888 -1.74811 1.20616 -16.8394 -22.1583 -0.53 10.8316 -1.19271e-015 1.98785e-016 -3.18055e-015 -0.786 0.112 2.5817 -3.97569e-016 1.98785e-016 -3.18055e-015 -0.3601 -0.878 4.2331 -2.98177e-016 1.98785e-016 -3.18055e-015 -1.8127 -1.216 2.2227 -2.98177e-016 3.97569e-016 -0 -0.9571 1.114 1.7695 4.96962e-016 0 -6.36111e-015 -4.1246 0.487 4.1451 -9.93923e-017 3.97569e-016 -0 -3.4052 -1.454 2.7682 -8.94531e-016 5.96354e-016 -0 -1.4531 -1.795 1.2713 -3.97569e-016 3.97569e-016 -0 -5.6954 0.21 2.1184 -9.93923e-017 3.97569e-016 -0 -3.9766 -1.54 2.3863 -8.94531e-016 5.96354e-016 -0 -1.4042 -1.926 1.125 -3.97569e-016 3.97569e-016 -0 -2.0956 0.66 -0.3894 4.96962e-016 0 -6.36111e-015 -5.0395 -0.09 2.4971 -9.93923e-017 3.97569e-016 -0 -3.7921 -1.552 1.4806 -8.94531e-016 5.96354e-016 -0 -1.4655 -1.808 0.9609 -3.97569e-016 3.97569e-016 -0 -4.9141 -1.269 0.3592 -9.93923e-017 3.97569e-016 -0 -3.1477 -1.685 0.8462 -8.94531e-016 5.96354e-016 -0 -0.8055 -1.585 0.7955 -3.97569e-016 3.97569e-016 -0 8.367 -8.2066 0.5982 -4.66115 -1.03232 0.120763 2.1923 -43.463 -0.4932 0.00990601 1.55097 0.177175 0.7333 -45.8593 -2.6451 4.65196 -0.54114 -0.255042 -8.367 -8.2066 0.5982 4.66115 -1.03222 -0.120763 -2.1923 -43.463 -0.4931 -0.00990459 1.5509 -0.177176 -0.7333 -45.8593 -2.6451 -4.65196 -0.541171 0.255041 
-7.06377 86.1179 -62.0976 0 0 -52.0007 0 -1.186 -1.5018 1.38688 -0.28114 0.0321625 0 9.964 0.2134 2.77398 -0.561411 0.0711334 0 13.134 -3.2573 2.77398 -0.561413 0.0711265 7.10543e-015 20.686 -1.6905 -0.73886 1.00079 0.721674 0 7.238 -0.1237 5.44424e-007 7.47931e-007 0.736147 1.7069 20.075 5.0056 -32.3421 -1.49762 2.24424 13.6458 -0.047 -4.849 -28.1889 -6.26608 11.433 28.3255 -0.9759 2.2888 0.0794982 0.658816 7.78171 22.1583 -0.53 10.8316 -6.5122 2.57103 0.0273111 0.786 0.112 2.5817 4.84342e-007 -2.51487e-006 6.47824e-007 0.3601 -0.878 4.2331 -1.03323e-006 8.18021e-007 2.19616e-006 1.8127 -1.216 2.2227 -3.18055e-015 3.18055e-015 -3.18055e-015 0.9571 1.114 1.7695 6.36111e-015 1.27222e-014 -7.15625e-015 4.1246 0.487 4.1451 4.84342e-007 -2.51487e-006 6.47824e-007 3.4052 -1.454 2.7682 -1.03323e-006 8.18021e-007 2.19616e-006 1.4531 -1.795 1.2713 -2.38542e-015 -9.54166e-015 2.38542e-015 5.6954 0.21 2.1184 4.84342e-007 -2.51487e-006 6.47824e-007 3.9766 -1.54 2.3863 -1.03323e-006 8.18021e-007 2.19616e-006 1.4042 -1.926 1.125 -2.38542e-015 -9.54166e-015 2.38542e-015 2.0956 0.66 -0.3894 6.36111e-015 1.27222e-014 -7.15625e-015 5.0395 -0.09 2.4971 4.84342e-007 -2.51487e-006 6.47824e-007 3.7921 -1.552 1.4806 -1.03323e-006 8.18021e-007 2.19616e-006 1.4655 -1.808 0.9609 -2.38542e-015 -9.54166e-015 2.38542e-015 4.9141 -1.269 0.3591 4.84342e-007 -2.51487e-006 6.47824e-007 3.1477 -1.685 0.8462 -1.03323e-006 8.18021e-007 2.19616e-006 0.8055 -1.585 0.7955 -2.38542e-015 -9.54166e-015 2.38542e-015 -1.7069 20.075 5.0056 32.3387 -1.49851 -2.24763 -13.6458 -0.047 -4.849 28.3943 -6.30735 -10.6803 -28.3255 -0.9759 2.2888 -1.87581 0.75031 -8.85203 -22.1583 -0.53 10.8316 9.82395 -5.7409 -0.370693 -0.786 0.112 2.5817 -9.54166e-015 3.18055e-015 3.18055e-015 -0.3601 -0.878 4.2331 -3.18055e-015 -3.18055e-015 2.38542e-015 -1.8127 -1.216 2.2227 -3.18055e-015 -3.18055e-015 1.59028e-015 -0.9571 1.114 1.7695 -3.18055e-015 3.18055e-015 2.38542e-015 -4.1246 0.487 4.1451 -6.36111e-015 -9.54166e-015 1.03368e-014 -3.4052 -1.454 2.7682 -6.36111e-015 3.18055e-015 -3.97569e-015 -1.4531 -1.795 1.2713 -6.36111e-015 -3.18055e-015 1.59028e-015 -5.6954 0.21 2.1184 -6.36111e-015 -9.54166e-015 1.03368e-014 -3.9766 -1.54 2.3863 -6.36111e-015 3.18055e-015 -3.97569e-015 -1.4042 -1.926 1.125 -6.36111e-015 -3.18055e-015 1.59028e-015 -2.0956 0.66 -0.3894 -3.18055e-015 3.18055e-015 2.38542e-015 -5.0395 -0.09 2.4971 -6.36111e-015 -9.54166e-015 1.03368e-014 -3.7921 -1.552 1.4806 -6.36111e-015 3.18055e-015 -3.97569e-015 -1.4655 -1.808 0.9609 -6.36111e-015 -3.18055e-015 1.59028e-015 -4.9141 -1.269 0.3592 -6.36111e-015 -9.54166e-015 1.03368e-014 -3.1477 -1.685 0.8462 -6.36111e-015 3.18055e-015 -3.97569e-015 -0.8055 -1.585 0.7955 -6.36111e-015 -3.18055e-015 1.59028e-015 8.367 -8.2066 0.5982 5.06162 -6.42934 0.930968 2.1923 -43.463 -0.4932 -0.391223 15.9458 0.129349 0.7333 -45.8593 -2.6451 -2.44685 -13.4079 36.8393 -8.367 -8.2066 0.5982 -8.71378 -8.25911 -13.9503 -2.1923 -43.463 -0.4931 2.21496 7.99097 -0.426237 -0.7333 -45.8593 -2.6451 -13.0716 -6.18071 -5.53994 
-7.07027 86.1178 -62.0978 0 0 -52.0007 0 -1.186 -1.5018 1.38438 -0.319771 0.0331372 7.10543e-015 9.964 0.2134 2.76901 -0.638642 0.0740114 0 13.134 -3.2573 2.76901 -0.638643 0.0740085 0 20.686 -1.6905 -1.36081 2.06335 1.56352 0 7.238 -0.1237 1.1866e-008 1.26828e-007 1.47147 1.7069 20.075 5.0056 -32.2005 -1.49812 2.27386 13.6458 -0.047 -4.849 -28.1396 -6.26556 11.4402 28.3255 -0.9759 2.2888 -0.363325 0.766651 7.78868 22.1583 -0.53 10.8316 -6.51216 2.57102 0.0273415 0.786 0.112 2.5817 3.66768e-007 -1.42149e-006 -7.72052e-007 0.3601 -0.878 4.2331 7.76097e-008 4.38709e-006 -1.29888e-006 1.8127 -1.216 2.2227 3.66768e-007 -1.42149e-006 -7.72052e-007 0.9571 1.114 1.7695 3.18055e-015 3.18055e-015 2.38542e-015 4.1246 0.487 4.1451 3.66768e-007 -1.42149e-006 -7.72052e-007 3.4052 -1.454 2.7682 7.76097e-008 4.38709e-006 -1.29888e-006 1.4531 -1.795 1.2713 3.66768e-007 -1.42149e-006 -7.72052e-007 5.6954 0.21 2.1184 3.66768e-007 -1.42149e-006 -7.72052e-007 3.9766 -1.54 2.3863 7.76097e-008 4.38709e-006 -1.29888e-006 1.4042 -1.926 1.125 3.66768e-007 -1.42149e-006 -7.72052e-007 2.0956 0.66 -0.3894 3.18055e-015 3.18055e-015 2.38542e-015 5.0395 -0.09 2.4971 3.66768e-007 -1.42149e-006 -7.72052e-007 3.7921 -1.552 1.4806 7.76097e-008 4.38709e-006 -1.29888e-006 1.4655 -1.808 0.9609 3.66768e-007 -1.42149e-006 -7.72052e-007 4.9141 -1.269 0.3591 3.66768e-007 -1.42149e-006 -7.72052e-007 3.1477 -1.685 0.8462 7.76097e-008 4.38709e-006 -1.29888e-006 0.8055 -1.585 0.7955 3.66768e-007 -1.42149e-006 -7.72052e-007 -1.7069 20.075 5.0056 32.563 -1.51248 -1.44749 -13.6458 -0.047 -4.849 28.4727 -6.33279 -10.3793 -28.3255 -0.9759 2.2888 -1.67304 0.669425 -7.99013 -22.1583 -0.53 10.8316 9.23691 -6.11683 -0.669962 -0.786 0.112 2.5817 -3.18055e-015 3.18055e-015 2.38542e-015 -0.3601 -0.878 4.2331 -1.81211e-007 -5.69392e-006 -2.29497e-006 -1.8127 -1.216 2.2227 1.27222e-014 -6.36111e-015 -2.38542e-015 -0.9571 1.114 1.7695 -0 0 1.59028e-015 -4.1246 0.487 4.1451 -1.32417e-031 3.18055e-015 2.38542e-015 -3.4052 -1.454 2.7682 -1.81211e-007 -5.69392e-006 -2.29497e-006 -1.4531 -1.795 1.2713 6.36111e-015 -6.36111e-015 -2.38542e-015 -5.6954 0.21 2.1184 -1.32417e-031 3.18055e-015 2.38542e-015 -3.9766 -1.54 2.3863 -1.81211e-007 -5.69392e-006 -2.29497e-006 -1.4042 -1.926 1.125 6.36111e-015 -6.36111e-015 -2.38542e-015 -2.0956 0.66 -0.3894 -0 0 1.59028e-015 -5.0395 -0.09 2.4971 -1.32417e-031 3.18055e-015 2.38542e-015 -3.7921 -1.552 1.4806 -1.81211e-007 -5.69392e-006 -2.29497e-006 -1.4655 -1.808 0.9609 6.36111e-015 -6.36111e-015 -2.38542e-015 -4.9141 -1.269 0.3592 -1.32417e-031 3.18055e-015 2.38542e-015 -3.1477 -1.685 0.8462 -1.81211e-007 -5.69392e-006 -2.29497e-006 -0.8055 -1.585 0.7955 6.36111e-015 -6.36111e-015 -2.38542e-015 8.367 -8.2066 0.5982 5.06427 -6.42401 0.93103 2.1923 -43.463 -0.4932 -0.391179 15.9416 0.128925 0.7333 -45.8593 -2.6451 -2.44961 -13.4089 36.8391 -8.367 -8.2066 0.5982 -8.62927 -8.04799 -13.9316 -2.1923 -43.463 -0.4931 2.27138 7.7822 -0.428243 -0.7333 -45.8593 -2.6451 -13.0691 -6.17234 -5.53909 
-7.07678 86.1177 -62.0979 0 0 -52.0007 0 -1.186 -1.5018 1.38193 -0.358418 0.0341532 0 9.964 0.2134 2.76417 -0.715896 0.0768764 7.10543e-015 13.134 -3.2573 2.76417 -0.715894 0.0769026 0 20.686 -1.6905 -2.00063 3.11936 2.41992 0 7.238 -0.1237 6.34724e-007 -1.27038e-007 2.20731 1.7069 20.075 5.0056 -32.0587 -1.49857 2.30346 13.6458 -0.047 -4.849 -28.0903 -6.26502 11.4475 28.3255 -0.9759 2.2888 -0.806311 0.874424 7.79651 22.1583 -0.53 10.8316 -6.51208 2.57099 0.0273941 0.786 0.112 2.5817 -1.38546e-006 9.68523e-007 2.16055e-006 0.3601 -0.878 4.2331 -3.67777e-007 1.41881e-006 7.76428e-007 1.8127 -1.216 2.2227 8.11378e-007 1.55286e-006 -2.83763e-006 0.9571 1.114 1.7695 -1.59028e-015 0 4.77083e-015 4.1246 0.487 4.1451 -1.38546e-006 9.68523e-007 2.16055e-006 3.4052 -1.454 2.7682 -3.67777e-007 1.41881e-006 7.76428e-007 1.4531 -1.795 1.2713 8.11378e-007 1.55286e-006 -2.83763e-006 5.6954 0.21 2.1184 -1.38546e-006 9.68523e-007 2.16055e-006 3.9766 -1.54 2.3863 -3.67777e-007 1.41881e-006 7.76428e-007 1.4042 -1.926 1.125 8.11378e-007 1.55286e-006 -2.83763e-006 2.0956 0.66 -0.3894 -1.59028e-015 0 4.77083e-015 5.0395 -0.09 2.4971 -1.38546e-006 9.68523e-007 2.16055e-006 3.7921 -1.552 1.4806 -3.67777e-007 1.41881e-006 7.76428e-007 1.4655 -1.808 0.9609 8.11378e-007 1.55286e-006 -2.83763e-006 4.9141 -1.269 0.3591 -1.38546e-006 9.68523e-007 2.16055e-006 3.1477 -1.685 0.8462 -3.67777e-007 1.41881e-006 7.76428e-007 0.8055 -1.585 0.7955 8.11378e-007 1.55286e-006 -2.83763e-006 -1.7069 20.075 5.0056 32.7878 -1.52336 -0.646622 -13.6458 -0.047 -4.849 28.5512 -6.35783 -10.0783 -28.3255 -0.9759 2.2888 -1.46889 0.591522 -7.1271 -22.1583 -0.53 10.8316 8.64621 -6.49043 -0.973961 -0.786 0.112 2.5817 3.3384e-006 -1.80207e-006 -2.61676e-006 -0.3601 -0.878 4.2331 2.81578e-007 -2.054e-007 -8.72547e-007 -1.8127 -1.216 2.2227 2.13815e-006 5.77689e-006 -2.94491e-006 -0.9571 1.114 1.7695 0 0 -7.95139e-016 -4.1246 0.487 4.1451 3.3384e-006 -1.80207e-006 -2.61676e-006 -3.4052 -1.454 2.7682 2.81578e-007 -2.054e-007 -8.72547e-007 -1.4531 -1.795 1.2713 2.13815e-006 5.77689e-006 -2.94491e-006 -5.6954 0.21 2.1184 3.3384e-006 -1.80207e-006 -2.61676e-006 -3.9766 -1.54 2.3863 2.81578e-007 -2.054e-007 -8.72547e-007 -1.4042 -1.926 1.125 2.13815e-006 5.77689e-006 -2.94491e-006 -2.0956 0.66 -0.3894 0 0 -7.95139e-016 -5.0395 -0.09 2.4971 3.3384e-006 -1.80207e-006 -2.61676e-006 -3.7921 -1.552 1.4806 2.81578e-007 -2.054e-007 -8.72547e-007 -1.4655 -1.808 0.9609 2.13815e-006 5.77689e-006 -2.94491e-006 -4.9141 -1.269 0.3592 3.3384e-006 -1.80207e-006 -2.61676e-006 -3.1477 -1.685 0.8462 2.81578e-007 -2.054e-007 -8.72547e-007 -0.8055 -1.585 0.7955 2.13815e-006 5.77689e-006 -2.94491e-006 8.367 -8.2066 0.5982 5.06695 -6.41799 0.931122 2.1923 -43.463 -0.4932 -0.391182 15.9366 0.128473 0.7333 -45.8593 -2.6451 -2.45236 -13.4099 36.8389 -8.367 -8.2066 0.5982 -8.54492 -7.83678 -13.9132 -2.1923 -43.463 -0.4931 2.32786 7.57358 -0.430044 -0.7333 -45.8593 -2.6451 -13.0667 -6.16417 -5.53827 
